<svg role="img" viewBox="0 0 24 24" xmlns="http://www.w3.org/2000/svg" aria-hidden="true"><path fill="currentColor" d="M8.851 18.836s-.917.534 1.704.713c2.408.241 3.666.207 6.331-.241 0 0 .747.475 1.788 1.117-5.996 2.564-13.662-.118-9.823-1.589zM8.276 15.933s-1.028.761.542.924c2.032.241 3.636.262 6.423-.118 0 0 .483.388 1.235.751-5.711 1.664-12.072.118-8.2-.557zM8.778 13.2s-1.175.924.445 1.117c2.241.262 4.033.324 7.127-.207 0 0 .336.345.864.663-6.331 1.847-13.4.324-8.436-1.573zM14.449 6.45c1.356 1.573-1.435 2.986-5.826 4.078 0 0-.383-.345-.747-.663 3.018-1.435 4.758-3.456 3.456-5.456-.924-1.435-2.986-1.788-5.456-.924 0 0 .207-.483.383-.924c3.018-.924 6.331.207 8.19 3.889z"/></svg>
