<svg width="127" height="21" viewBox="0 0 127 21" fill="none" xmlns="http://www.w3.org/2000/svg">
    <path d="M0.868156 20V0.119999H8.51216C10.7148 0.119999 12.5535 0.567999 14.0282 1.464C15.5215 2.34133 16.6415 3.536 17.3882 5.048C18.1535 6.54133 18.5362 8.20267 18.5362 10.032C18.5362 12.048 18.1162 13.8027 17.2762 15.296C16.4548 16.7893 15.2882 17.9467 13.7762 18.768C12.2828 19.5893 10.5282 20 8.51216 20H0.868156ZM12.9922 10.032C12.9922 9.00533 12.8148 8.10933 12.4602 7.344C12.1055 6.56 11.5922 5.95333 10.9202 5.524C10.2482 5.09467 9.44549 4.88 8.51216 4.88H6.32816V15.24H8.51216C9.46416 15.24 10.2668 15.016 10.9202 14.568C11.5922 14.12 12.1055 13.504 12.4602 12.72C12.8148 11.9173 12.9922 11.0213 12.9922 10.032ZM29.5911 20.168C28.0045 20.168 26.6418 19.9067 25.5031 19.384C24.3645 18.8613 23.4311 18.1427 22.7031 17.228C21.9938 16.3133 21.4711 15.268 21.1351 14.092C20.7991 12.8973 20.6311 11.6467 20.6311 10.34V0.119999H26.0911V10.34C26.0911 10.9933 26.1565 11.6187 26.2871 12.216C26.4178 12.8133 26.6231 13.3453 26.9031 13.812C27.1831 14.2787 27.5378 14.652 27.9671 14.932C28.4151 15.1933 28.9565 15.324 29.5911 15.324C30.2445 15.324 30.7951 15.1933 31.2431 14.932C31.6911 14.652 32.0458 14.2787 32.3071 13.812C32.5871 13.3267 32.7925 12.7853 32.9231 12.188C33.0538 11.5907 33.1191 10.9747 33.1191 10.34V0.119999H38.5791V10.34C38.5791 11.7213 38.3925 13.0093 38.0191 14.204C37.6645 15.3987 37.1231 16.444 36.3951 17.34C35.6671 18.236 34.7338 18.936 33.5951 19.44C32.4751 19.9253 31.1405 20.168 29.5911 20.168ZM40.6277 9.892C40.6277 8.67867 40.8517 7.49333 41.2997 6.336C41.7664 5.16 42.4384 4.096 43.3157 3.144C44.1931 2.192 45.2571 1.436 46.5077 0.875999C47.7771 0.297332 49.2051 0.0079987 50.7917 0.0079987C52.6957 0.0079987 54.3571 0.409332 55.7757 1.212C57.1944 1.996 58.2491 3.04133 58.9397 4.348L54.7677 7.316C54.5251 6.66267 54.1704 6.15867 53.7037 5.804C53.2557 5.44933 52.7611 5.20667 52.2197 5.076C51.6971 4.92667 51.1837 4.852 50.6797 4.852C49.8957 4.852 49.2144 5.01067 48.6357 5.328C48.0757 5.62667 47.6091 6.028 47.2357 6.532C46.8811 7.036 46.6104 7.596 46.4237 8.212C46.2557 8.828 46.1717 9.444 46.1717 10.06C46.1717 10.7507 46.2744 11.4133 46.4797 12.048C46.6851 12.6827 46.9837 13.252 47.3757 13.756C47.7677 14.2413 48.2437 14.624 48.8037 14.904C49.3824 15.184 50.0264 15.324 50.7357 15.324C51.2397 15.324 51.7531 15.2493 52.2757 15.1C52.7984 14.932 53.2744 14.6707 53.7037 14.316C54.1331 13.9613 54.4597 13.4853 54.6837 12.888L59.1357 15.548C58.7437 16.5187 58.0904 17.3493 57.1757 18.04C56.2611 18.7307 55.2251 19.2627 54.0677 19.636C52.9104 19.9907 51.7624 20.168 50.6237 20.168C49.1491 20.168 47.7957 19.8787 46.5637 19.3C45.3504 18.7027 44.2957 17.9187 43.3997 16.948C42.5224 15.9587 41.8411 14.8573 41.3557 13.644C40.8704 12.412 40.6277 11.1613 40.6277 9.892Z" fill="#0846A6"/>
    <path d="M76.5631 4.88H70.8511V20H65.3911V4.88H59.6511V0.119999H76.5631V4.88ZM81.3117 0.119999H87.4157L93.7437 20H88.1997L86.9957 16.108H81.7037L80.5277 20H74.9557L81.3117 0.119999ZM86.1277 12.468L84.3637 5.468L82.5157 12.468H86.1277ZM95.3955 20V0.119999H103.964C104.934 0.119999 105.83 0.315999 106.652 0.708C107.473 1.1 108.182 1.632 108.78 2.304C109.377 2.95733 109.834 3.69467 110.151 4.516C110.488 5.33733 110.656 6.168 110.656 7.008C110.656 8.184 110.376 9.29467 109.816 10.34C109.274 11.3853 108.509 12.244 107.52 12.916C106.549 13.5693 105.41 13.896 104.104 13.896H100.856V20H95.3955ZM100.856 9.136H103.74C103.964 9.136 104.178 9.07067 104.384 8.94C104.589 8.80933 104.757 8.58533 104.888 8.268C105.037 7.95067 105.112 7.53067 105.112 7.008C105.112 6.448 105.028 6.01867 104.86 5.72C104.71 5.40267 104.514 5.188 104.272 5.076C104.048 4.94533 103.824 4.88 103.6 4.88H100.856V9.136ZM127.009 15.24V20H112.841V0.119999H126.757V4.88H118.301V7.68H125.525V12.104H118.301V15.24H127.009Z" fill="#DC3444"/>
    </svg>
    