<svg width="230" height="32" viewBox="0 0 230 32" fill="none" xmlns="http://www.w3.org/2000/svg">
  <style>
    @import url('https://fonts.googleapis.com/css2?family=Raleway:wght@300;400;500;600;700;800;900&amp;display=swap');
    text {
      font-family: 'Raleway', 'Inter', system-ui, -apple-system, BlinkMacSystemFont, sans-serif;
      -webkit-font-smoothing: antialiased;
      -moz-osx-font-smoothing: grayscale;
      text-rendering: optimizeLegibility;
    }
  </style>
  <!-- Brackets Icon -->
  <g transform="translate(0, -1.3)">
    <path d="M9.33 6.67C6.67 6.67 5.33 9.33 5.33 12V14.67C5.33 16 4 17.33 4 17.33C4 17.33 5.33 18.67 5.33 20V22.67C5.33 25.33 6.67 28 9.33 28"
      stroke="#0846A6" stroke-width="2" stroke-linecap="round" fill="none" />
    <path d="M22.67 6.67C25.33 6.67 26.67 9.33 26.67 12V14.67C26.67 16 28 17.33 28 17.33C28 17.33 26.67 18.67 26.67 20V22.67C26.67 25.33 25.33 28 22.67 28"
      stroke="#0846A6" stroke-width="2" stroke-linecap="round" fill="none" />
    <path d="M10.67 13.33H21.33" stroke="#0846A6" stroke-width="1.5" stroke-linecap="round" />
    <path d="M10.67 17.33H21.33" stroke="#0846A6" stroke-width="1.5" stroke-linecap="round" />
    <path d="M10.67 21.33H21.33" stroke="#0846A6" stroke-width="1.5" stroke-linecap="round" />
    <circle cx="10.67" cy="13.33" r="1.33" fill="#0846A6" />
    <circle cx="21.33" cy="17.33" r="1.33" fill="#0846A6" />
    <circle cx="10.67" cy="21.33" r="1.33" fill="#0846A6" />
  </g>
  <!-- Ductape Text -->
  <text x="44" y="23" font-size="23" font-weight="700" letter-spacing="-0.02em" fill="#0846A6">Ductape</text>
  <!-- Docs Text -->
  <text x="154" y="22" font-size="18" font-weight="450" letter-spacing="-0.01em" fill="#9CA3AF">Docs</text>
  <!-- Vertical Divider Line -->
  <line x1="229" y1="1" x2="229" y2="31" stroke="#d6d8dc" stroke-width="1" />
</svg>
