<svg width="500" height="500" viewBox="116 96 268 308" fill="none" xmlns="http://www.w3.org/2000/svg">
<path fill-rule="evenodd" clip-rule="evenodd" d="M297.147 104.196C300.07 102.641 303.565 102.687 306.448 104.32L372.679 141.82C375.793 143.583 377.725 146.93 377.725 150.562L377.721 225.559C377.721 229.285 375.689 232.701 372.449 234.425L203.227 324.422C200.303 325.977 196.808 325.931 193.925 324.297L127.712 286.799C124.598 285.035 122.666 281.69 122.666 278.059L122.653 203.061C122.652 199.335 124.684 195.917 127.925 194.193L297.147 104.196ZM142.275 209.121L142.284 261.562L291.886 181.998L291.877 129.557L142.275 209.121ZM311.498 130.057L311.507 182.175L358.101 208.563L358.104 156.446L311.498 130.057ZM347.222 225.282L301.551 199.417L153.164 278.334L198.835 304.199L347.222 225.282Z" fill="#0846A6"/>
<path opacity="0.5" fill-rule="evenodd" clip-rule="evenodd" d="M203.232 399.422C200.308 400.977 196.813 400.93 193.93 399.298L127.7 361.798C124.585 360.034 122.653 356.688 122.653 353.055L122.658 278.058C122.658 274.333 124.69 270.916 127.93 269.193L297.151 179.196C300.075 177.64 303.571 177.687 306.454 179.32L372.667 216.819C375.78 218.583 377.712 221.928 377.712 225.559L377.725 300.557C377.726 304.283 375.694 307.7 372.453 309.424L203.232 399.422ZM358.103 294.497L358.095 242.056L208.493 321.619L208.501 374.06L358.103 294.497ZM188.88 373.56L188.872 321.442L142.277 295.054L142.274 347.172L188.88 373.56ZM153.156 278.336L198.827 304.201L347.214 225.284L301.543 199.418L153.156 278.336Z" fill="#0846A6"/>
</svg>
